<?xml version="1.0" standalone="no"?>
<!DOCTYPE svg PUBLIC "-//W3C//DTD SVG 20010904//EN"
 "http://www.w3.org/TR/2001/REC-SVG-20010904/DTD/svg10.dtd">
<svg version="1.0" xmlns="http://www.w3.org/2000/svg"
 width="1024.000000pt" height="1024.000000pt" viewBox="0 0 1024.000000 1024.000000"
 preserveAspectRatio="xMidYMid meet">

<g transform="translate(0.000000,1024.000000) scale(0.100000,-0.100000)"
fill="#000000" stroke="none">
<path d="M5190 9952 c0 -14 -63 -34 -86 -26 -14 4 -15 3 -6 -4 17 -12 -91 -58
-109 -46 -7 4 -9 3 -6 -3 8 -13 -87 -58 -104 -48 -8 5 -10 4 -5 -4 4 -7 -2
-14 -15 -19 -16 -6 -19 -11 -10 -16 8 -5 63 17 139 55 140 71 152 76 137 61
-18 -19 -313 -162 -674 -327 -305 -139 -560 -257 -841 -387 -36 -17 -162 -74
-280 -128 -118 -54 -314 -144 -435 -200 -121 -56 -312 -144 -425 -195 -113
-51 -320 -145 -460 -210 -383 -176 -431 -197 -437 -191 -3 3 3 8 13 12 10 4
123 54 249 111 530 242 635 289 805 368 80 37 171 78 202 92 32 14 56 30 55
37 -1 6 5 10 12 8 8 -2 24 1 35 6 12 6 47 21 80 33 32 13 61 29 63 36 3 7 13
13 23 13 21 0 151 59 131 60 -29 0 6 23 36 22 15 0 60 16 100 34 39 19 73 34
76 34 7 0 469 214 487 225 15 10 101 47 152 67 16 5 25 14 22 19 -3 5 1 6 9 3
8 -3 14 2 14 11 0 8 -2 15 -4 15 -11 0 -203 -94 -203 -100 0 -4 -15 -6 -34 -5
-19 0 -33 -2 -30 -6 2 -4 -63 -38 -145 -75 -82 -38 -147 -72 -146 -75 2 -3
-11 -5 -30 -4 -18 0 -31 -3 -29 -7 3 -4 -18 -17 -45 -29 -28 -11 -49 -26 -48
-31 1 -6 -4 -13 -12 -16 -9 -3 -11 0 -7 7 4 6 -19 -1 -51 -15 -32 -15 -70 -28
-85 -29 -54 -4 -54 -5 -40 -14 9 -5 -14 -20 -72 -46 -47 -21 -83 -42 -80 -46
3 -5 -1 -7 -8 -4 -7 3 -46 -11 -87 -30 -47 -23 -81 -33 -95 -30 -17 5 -18 4
-6 -5 12 -10 11 -11 -8 -7 -14 3 -20 1 -15 -6 4 -7 0 -8 -11 -4 -9 4 -15 3
-12 -2 5 -8 -264 -141 -285 -141 -6 0 -8 -4 -5 -8 4 -7 -4 -9 -58 -15 -13 -1
-22 -5 -20 -8 2 -3 -14 -14 -36 -24 -22 -10 -37 -22 -34 -26 3 -5 -3 -6 -12
-2 -13 5 -15 3 -9 -7 5 -8 4 -11 -3 -6 -6 4 -41 -7 -79 -24 -37 -17 -73 -28
-81 -25 -8 3 -10 0 -6 -7 5 -8 2 -9 -10 -5 -9 4 -15 3 -12 -2 8 -12 -70 -45
-85 -36 -8 6 -10 4 -4 -5 6 -10 4 -12 -9 -7 -9 4 -15 3 -12 -1 8 -13 -110 -66
-124 -57 -8 5 -11 4 -7 -2 8 -13 -87 -58 -104 -48 -7 5 -10 4 -6 -2 8 -13
-207 -118 -227 -110 -9 4 -15 3 -15 -1 4 -27 -2 -32 -22 -21 -12 6 -19 7 -15
1 3 -5 -1 -13 -10 -16 -24 -9 -31 -7 -14 4 9 6 10 10 3 10 -16 0 -26 -17 -13
-25 5 -3 10 -12 10 -18 0 -8 -3 -8 -8 -2 -7 10 -62 18 -62 9 0 -3 26 -17 58
-31 31 -13 125 -62 207 -108 83 -45 263 -143 400 -217 138 -74 266 -144 285
-155 l35 -20 190 138 c105 77 221 161 258 189 38 27 73 50 79 50 11 0 344
-174 633 -330 731 -396 935 -508 954 -526 4 -4 -580 -292 -622 -307 -10 -4
-16 -3 -13 1 3 5 127 67 276 138 149 70 280 137 290 146 11 10 22 18 25 18 17
0 18 1 5 10 -21 14 -28 12 -33 -7 -4 -14 -5 -12 -6 5 -1 29 -8 28 -88 -8 -70
-32 -95 -39 -53 -15 14 8 21 14 15 14 -13 0 -63 -28 -50 -29 5 0 -1 -7 -13
-16 -13 -9 -30 -13 -38 -10 -8 3 -12 1 -9 -4 8 -12 -113 -73 -132 -66 -9 4
-11 2 -7 -6 5 -8 2 -9 -10 -5 -10 4 -15 3 -11 -3 4 -6 -36 -30 -90 -55 -94
-44 -135 -58 -85 -30 35 20 18 19 -24 -2 -19 -9 -32 -21 -29 -26 3 -6 1 -7 -5
-3 -6 4 -20 1 -31 -6 -23 -14 -66 12 484 -303 209 -119 411 -235 448 -257 l68
-40 42 17 c23 9 179 86 346 171 l304 155 109 -56 108 -56 68 37 c37 20 186
107 332 193 268 157 403 232 385 214 -9 -9 -527 -312 -734 -430 -52 -30 -101
-51 -108 -48 -9 3 -11 0 -7 -7 5 -8 2 -9 -9 -5 -9 3 -19 1 -23 -5 -5 -7 -2 -8
6 -3 9 6 11 4 6 -4 -5 -7 -15 -10 -23 -7 -8 3 -12 2 -9 -3 10 -16 -208 -136
-226 -125 -7 4 -8 3 -4 -4 8 -14 -30 -36 -46 -26 -7 4 -8 3 -4 -4 6 -10 -44
-44 -61 -41 -22 4 -24 -3 -7 -22 19 -22 19 -22 -4 -10 -55 29 -52 91 -52
-1083 0 -809 -3 -1087 -12 -1092 -7 -5 -8 -3 -3 6 6 10 4 12 -9 7 -9 -4 -15
-3 -12 2 3 5 -1 12 -10 15 -9 3 -12 2 -9 -5 4 -6 -25 6 -64 26 -40 19 -69 40
-66 45 4 6 -1 7 -11 3 -11 -4 -15 -2 -11 4 4 6 0 14 -9 17 -9 4 -13 2 -8 -6 4
-6 -17 2 -46 18 -29 16 -55 34 -57 42 -5 12 -103 67 -103 57 0 -2 21 -16 48
-29 26 -14 43 -25 39 -26 -21 -1 -177 93 -171 102 4 7 2 8 -4 4 -6 -4 -38 7
-71 24 -33 16 -65 30 -71 30 -6 0 -18 7 -26 15 -15 14 -48 10 -39 -5 3 -5 0
-10 -6 -12 -10 -3 159 -101 391 -226 134 -72 330 -184 330 -189 0 -3 -26 10
-57 28 -56 31 -346 190 -585 320 -65 35 -118 67 -118 70 0 3 10 11 23 16 12 6
31 18 42 27 11 9 108 65 215 124 l195 107 3 782 c2 769 2 782 -17 788 -11 3
-30 0 -43 -8 -22 -14 -715 -382 -944 -501 l-110 -58 -190 103 c-104 56 -408
225 -675 375 -267 150 -670 372 -895 494 -225 123 -445 242 -490 266 -44 24
-86 44 -92 44 -7 0 -12 -15 -12 -34 0 -39 -30 -20 465 -286 276 -148 301 -163
284 -168 -39 -11 -148 -66 -144 -72 7 -11 -91 -53 -104 -45 -6 3 -10 2 -9 -4
4 -14 -332 -173 -350 -166 -7 2 -11 1 -8 -4 8 -12 -90 -55 -105 -46 -8 6 -10
4 -4 -5 6 -10 3 -12 -11 -7 -15 6 -14 3 5 -13 13 -11 34 -20 46 -20 13 0 164
68 335 152 258 126 308 153 289 160 -12 5 -19 11 -16 14 3 3 18 -1 33 -9 28
-15 27 -15 -251 -152 -300 -147 -381 -185 -394 -185 -4 0 -24 11 -44 25 -20
13 -38 21 -40 17 -3 -6 -1 -3069 2 -3099 0 -6 94 -76 209 -154 114 -78 250
-173 303 -210 429 -303 1823 -1208 2828 -1836 l293 -184 119 78 c168 110 476
310 594 386 55 35 177 113 270 174 675 435 970 625 1395 896 267 170 511 326
543 346 31 20 120 77 197 126 77 50 179 114 226 144 62 39 82 56 72 62 -21 14
-144 49 -164 47 -11 0 -30 0 -44 1 -23 2 -24 3 -5 11 14 6 15 9 5 9 -9 1 -21
-4 -26 -9 -13 -13 -96 -1 -88 12 4 6 -1 8 -12 5 -11 -4 -35 -2 -54 2 -29 8
-31 9 -10 11 23 1 22 3 -10 14 -24 9 -30 15 -20 19 8 3 3 4 -12 1 -15 -3 -42
-1 -60 5 -18 6 -50 11 -70 13 -21 1 -38 5 -38 9 0 4 17 6 38 4 20 -1 25 0 10
2 -16 2 -28 7 -28 11 0 7 166 112 497 317 54 34 131 82 170 108 l73 47 0 1297
c0 842 -4 1293 -10 1283 -9 -13 -14 -7 -11 12 0 4 -7 4 -16 1 -12 -5 -14 -3
-8 7 5 8 4 11 -3 6 -16 -10 -294 132 -286 146 4 6 3 8 -3 5 -16 -10 -85 22
-77 35 4 7 3 8 -4 4 -6 -4 -70 23 -141 59 -136 68 -156 73 -184 53 -14 -11 37
-40 351 -198 426 -215 377 -189 370 -196 -3 -3 -75 31 -159 74 -85 44 -256
132 -381 196 l-228 116 45 22 46 22 -52 27 -52 26 144 85 c79 47 249 147 377
223 l232 137 0 599 0 600 -22 -12 c-13 -6 -32 -19 -43 -29 -29 -24 -129 -85
-342 -208 -104 -60 -363 -211 -578 -337 -400 -235 -621 -362 -970 -563 -110
-63 -326 -188 -480 -277 -563 -326 -825 -475 -837 -475 -7 0 -2 6 12 13 40 21
830 475 990 569 80 47 203 118 274 158 98 56 124 76 110 81 -11 3 -38 1 -61
-6 -38 -12 -45 -11 -85 13 -87 50 -519 281 -718 385 -252 130 -338 176 -326
177 14 0 794 -409 1019 -534 37 -21 67 -35 67 -32 0 3 -18 15 -40 26 l-40 20
463 231 c254 128 473 233 487 234 24 2 52 11 75 23 6 3 -5 -9 -24 -26 -32 -31
-70 -45 -55 -20 4 7 3 8 -5 4 -6 -4 -9 -11 -7 -15 5 -7 -116 -81 -158 -97 -15
-6 -17 -4 -11 7 5 8 5 11 -1 6 -5 -5 -9 -14 -9 -19 0 -6 -6 -13 -14 -16 -9 -3
-11 0 -6 9 9 13 -82 -35 -100 -54 -5 -6 11 2 37 16 51 29 63 33 52 16 -5 -8
-1 -8 14 0 27 15 32 14 32 -5 0 -9 3 -14 8 -12 43 19 112 60 118 70 5 8 2 9
-9 5 -11 -4 -17 -1 -17 8 0 18 49 32 59 17 4 -8 45 12 116 54 61 36 112 68
115 71 3 3 -12 4 -32 1 -46 -5 -41 0 42 44 36 20 107 58 158 87 50 28 94 51
97 51 2 0 2 -7 -1 -15 -3 -8 -11 -13 -16 -12 -6 1 -13 -4 -15 -11 -4 -11 -1
-12 16 -3 11 7 21 16 21 22 0 6 4 8 9 5 4 -3 16 0 26 8 15 11 16 13 1 13 -9 0
-16 -4 -16 -9 0 -5 -5 -6 -11 -2 -8 4 -7 9 2 15 7 4 16 6 20 3 4 -2 9 3 13 11
3 8 11 15 18 15 9 0 9 -3 -2 -10 -32 -20 1 -20 42 1 36 18 40 23 24 29 -17 6
-17 7 -3 13 8 3 17 1 19 -5 4 -11 250 124 300 164 23 19 23 19 -10 3 -59 -29
-45 -9 17 24 63 33 76 37 65 20 -4 -8 0 -8 15 0 24 13 28 23 6 15 -8 -4 -15
-4 -15 -1 0 4 20 15 44 25 24 11 47 25 51 31 12 20 -139 -60 -520 -274 -198
-111 -383 -214 -412 -230 l-52 -27 -273 144 c-150 80 -363 193 -473 251 -110
58 -348 184 -530 280 -181 96 -487 256 -680 357 -192 100 -363 190 -380 200
l-30 18 -430 -295 c-236 -161 -448 -306 -470 -322 -22 -15 -177 -123 -345
-240 -168 -117 -310 -215 -316 -218 -6 -2 -89 37 -185 88 -96 51 -250 131
-342 179 l-168 87 48 40 c55 45 161 127 708 546 215 164 527 404 695 533 168
128 398 305 511 391 256 197 296 230 286 239 -4 4 -7 2 -7 -4z m358 -1289
c626 -327 818 -430 838 -446 10 -9 30 -24 42 -34 l24 -19 -468 -227 c-257
-125 -472 -226 -477 -224 -5 1 94 52 219 112 572 274 679 330 676 352 -3 17
-9 20 -43 18 -22 -1 -43 -6 -47 -10 -4 -4 4 -4 17 0 16 5 21 4 17 -4 -4 -6
-14 -11 -22 -11 -8 0 -60 -23 -115 -51 -56 -28 -107 -48 -115 -45 -8 3 -13 1
-11 -4 2 -10 -646 -330 -668 -330 -23 0 -45 12 -39 21 3 5 -2 6 -10 3 -18 -7
-59 14 -51 26 4 6 -1 7 -11 3 -13 -5 -15 -3 -9 7 5 8 4 11 -3 6 -15 -9 -235
102 -227 114 4 6 -1 7 -11 3 -10 -4 -15 -2 -11 4 3 5 -4 9 -16 9 -12 -1 -21 4
-20 11 2 7 -3 10 -11 7 -17 -7 -59 14 -52 25 3 4 -5 7 -17 7 -13 -1 -21 4 -19
12 1 8 -2 11 -7 7 -14 -8 -293 133 -286 145 4 6 -1 7 -11 3 -13 -5 -15 -3 -9
7 5 8 4 11 -3 6 -12 -7 -163 64 -157 74 2 4 -19 5 -48 3 -29 -1 -46 0 -39 3 7
3 23 16 35 28 12 12 126 91 252 177 127 86 307 208 400 272 94 64 171 116 173
116 2 1 155 -78 340 -176z m-1060 -522 c92 -48 271 -141 397 -206 127 -65 333
-172 459 -237 127 -66 399 -208 605 -315 459 -238 563 -294 558 -299 -2 -2
-57 25 -123 59 -179 95 -833 435 -1769 919 -159 83 -294 154 -299 159 -23 21
15 4 172 -80z m3782 -96 c0 -2 -13 -11 -30 -20 -38 -19 -40 -11 -2 9 31 17 32
18 32 11z m-750 -435 c0 -5 -5 -10 -11 -10 -5 0 -7 5 -4 10 3 6 8 10 11 10 2
0 4 -4 4 -10z m-4982 -1612 c-2 -175 0 -318 5 -318 4 0 6 -19 5 -42 l-1 -43
-4 38 c-2 20 -8 37 -14 37 -5 0 -9 142 -8 363 1 246 4 349 10 322 5 -21 8
-182 7 -357z m4972 -733 c0 -730 -3 -1105 -10 -1105 -6 0 -10 70 -11 188 -1
103 -3 178 -6 167 -3 -11 -9 -24 -14 -29 -5 -6 -9 -28 -10 -50 0 -28 -3 -35
-8 -23 -9 24 -7 544 2 553 4 4 7 -7 7 -25 0 -19 4 -30 10 -26 14 9 12 -18 -2
-34 -10 -11 -10 -13 0 -7 9 6 12 -12 12 -73 0 -58 -4 -81 -12 -82 -10 0 -10
-2 0 -6 15 -6 16 -65 0 -81 -9 -9 -9 -12 0 -12 7 0 12 -7 12 -16 0 -8 -4 -12
-10 -9 -15 9 -11 -17 5 -39 13 -18 15 21 13 335 -1 195 -4 318 -5 274 -3 -47
-9 -83 -16 -88 -9 -6 -9 -10 2 -14 11 -4 11 -7 0 -13 -9 -6 -10 -12 -2 -22 8
-10 8 -18 -3 -32 -13 -18 -14 -11 -15 65 -6 320 -5 837 1 863 6 24 8 26 9 8 1
-13 5 -20 11 -17 6 3 11 -34 13 -97 1 -57 4 39 5 212 1 175 -2 309 -7 302 -4
-8 -11 -13 -15 -13 -38 5 -36 52 -36 -1087 l0 -1087 -332 -211 c-543 -344
-1642 -1046 -1780 -1138 l-28 -18 0 455 0 456 -40 24 -41 24 68 40 c37 22 193
117 346 211 153 94 296 181 317 193 l40 23 0 622 0 622 308 190 307 190 3
-624 2 -624 30 -15 c16 -8 31 -15 34 -15 3 0 7 298 8 662 l3 662 410 247 c226
137 413 248 418 248 4 1 7 -496 7 -1104z m-4796 1017 c55 -32 244 -139 419
-237 l317 -180 0 -822 0 -823 39 3 c22 1 39 4 39 7 0 3 0 364 1 803 l1 797 38
-23 c87 -54 212 -117 232 -117 13 0 71 25 129 56 58 32 142 76 186 100 44 23
227 121 408 217 l327 175 -2 -720 -3 -719 -170 -96 c-93 -52 -323 -178 -510
-280 -187 -102 -346 -190 -352 -196 -7 -5 -13 -25 -13 -43 0 -41 -63 2 575
-389 160 -97 353 -217 430 -265 77 -48 199 -123 270 -167 l130 -80 6 -49 c4
-27 7 -287 8 -578 l1 -528 -27 17 c-16 10 -75 55 -133 101 -417 328 -593 468
-851 675 -162 129 -461 368 -664 531 -204 163 -499 400 -655 525 l-285 229 -3
1067 c-1 587 1 1067 4 1067 3 0 52 -26 108 -58z m4743 -108 c2 -41 -3 -42 -11
-2 -3 21 0 38 8 38 1 0 2 -16 3 -36z m16 -51 c-7 -2 -13 -18 -13 -34 0 -16 -4
-29 -9 -29 -4 0 -8 16 -7 35 1 28 5 35 21 34 11 0 14 -3 8 -6z m-13 -83 c0 -5
-2 -10 -4 -10 -3 0 -8 5 -11 10 -3 6 -1 10 4 10 6 0 11 -4 11 -10z m17 -22
c-3 -7 -5 -2 -5 12 0 14 2 19 5 13 2 -7 2 -19 0 -25z m-17 -18 c0 -11 -2 -20
-4 -20 -2 0 -6 9 -9 20 -3 11 -1 20 4 20 5 0 9 -9 9 -20z m-4917 -1857 c5 -8
3 -13 -5 -13 -11 0 13 -23 71 -67 12 -9 5 -9 -33 0 -35 8 -43 13 -30 17 15 5
6 15 -44 46 -34 22 -59 44 -55 49 5 4 0 5 -9 2 -16 -6 -17 39 -15 676 l2 682
50 32 50 33 5 -722 c3 -398 9 -729 13 -735z m4934 835 c-3 -8 -6 -5 -6 6 -1
11 2 17 5 13 3 -3 4 -12 1 -19z m3 -812 c0 -2 -9 -6 -20 -9 -11 -3 -20 -1 -20
4 0 5 9 9 20 9 11 0 20 -2 20 -4z m-5076 -17 c-3 -6 0 -16 7 -21 10 -6 6 -7
-11 -2 -34 9 -37 13 -20 24 20 13 33 12 24 -1z m5106 -89 c0 -81 2 -89 18 -83
9 3 2 -6 -17 -21 -41 -31 -57 -35 -21 -5 45 37 -4 12 -101 -51 -52 -34 -94
-66 -94 -70 0 -5 -4 -12 -9 -17 -5 -5 -6 -2 -1 6 5 9 3 12 -6 9 -8 -3 -14 -10
-14 -16 0 -5 -4 -14 -9 -19 -5 -5 -6 -2 -1 6 5 9 3 12 -6 9 -8 -3 -14 -10 -14
-15 0 -6 -4 -15 -9 -20 -5 -5 -6 -2 -1 6 5 9 3 12 -6 9 -8 -3 -13 -11 -11 -17
1 -7 -2 -10 -8 -6 -11 7 -85 -34 -76 -42 2 -3 17 3 33 12 l28 17 -25 -20 c-14
-12 -34 -20 -45 -19 -11 1 -19 -3 -18 -9 1 -7 -5 -11 -15 -10 -9 0 -17 -4 -17
-11 0 -6 -4 -15 -9 -20 -5 -5 -6 -2 -1 6 5 9 3 12 -6 9 -8 -3 -14 -10 -14 -15
0 -6 -4 -15 -9 -20 -5 -5 -6 -3 -2 5 4 6 5 12 2 12 -11 0 -77 -43 -72 -47 2
-3 17 3 33 12 l28 17 -25 -20 c-14 -12 -34 -20 -45 -19 -11 1 -20 -3 -20 -10
0 -6 -4 -15 -9 -20 -5 -5 -6 -3 -2 5 11 18 1 15 -54 -19 -27 -17 -48 -35 -45
-39 3 -5 0 -12 -6 -16 -8 -5 -9 -3 -4 6 5 8 3 11 -6 8 -8 -3 -14 -10 -14 -15
0 -6 -4 -15 -9 -20 -5 -5 -6 -2 -1 6 5 9 3 12 -6 9 -8 -3 -14 -10 -14 -16 0
-5 -4 -14 -9 -19 -5 -5 -6 -2 -1 6 5 9 3 12 -6 9 -8 -3 -14 -10 -14 -16 0 -5
-4 -14 -9 -19 -5 -5 -6 -2 -1 6 5 9 3 12 -6 9 -8 -3 -13 -10 -12 -16 2 -6 -3
-9 -11 -6 -8 3 -17 0 -22 -7 -5 -8 -3 -10 6 -4 8 5 11 4 6 -3 -4 -6 -14 -8
-23 -5 -10 4 -14 2 -10 -4 4 -6 -1 -10 -10 -9 -10 0 -18 -4 -18 -11 0 -6 -4
-15 -9 -20 -5 -5 -6 -2 -1 6 5 9 3 12 -6 9 -8 -3 -14 -10 -14 -15 0 -6 -4 -15
-9 -20 -5 -5 -6 -2 -1 6 5 9 3 12 -6 9 -8 -3 -14 -10 -14 -15 0 -6 -4 -15 -9
-20 -5 -5 -6 -2 -1 6 5 9 3 12 -6 9 -8 -3 -14 -10 -14 -15 0 -6 -4 -15 -9 -20
-5 -5 -6 -3 -2 5 4 6 5 12 2 12 -12 0 -101 -61 -101 -70 0 -4 -4 -12 -9 -17
-5 -5 -6 -2 -1 6 5 9 3 12 -6 9 -8 -3 -14 -10 -14 -15 0 -6 -4 -15 -9 -20 -5
-5 -6 -2 -1 6 5 9 3 12 -6 9 -8 -3 -14 -10 -14 -15 0 -6 -4 -15 -9 -20 -5 -5
-6 -2 -1 6 5 9 3 12 -6 9 -8 -3 -14 -10 -14 -15 0 -6 -4 -15 -9 -20 -5 -5 -6
-2 -1 6 5 9 3 12 -6 9 -8 -3 -13 -11 -11 -17 1 -7 -2 -10 -8 -6 -13 8 -82 -34
-75 -45 3 -5 0 -12 -6 -16 -8 -5 -9 -3 -4 6 5 8 3 11 -6 8 -8 -3 -14 -10 -14
-15 0 -6 -4 -15 -9 -20 -5 -5 -6 -2 -1 6 5 9 3 12 -6 9 -8 -3 -14 -10 -14 -15
0 -6 -4 -15 -9 -20 -5 -5 -6 -2 -1 6 5 9 3 12 -6 9 -8 -3 -13 -11 -11 -17 1
-7 -2 -10 -7 -6 -14 8 -62 -25 -54 -38 3 -6 1 -7 -6 -3 -16 10 -64 -22 -55
-36 4 -7 3 -8 -4 -4 -14 9 -55 -12 -47 -24 3 -5 0 -12 -6 -16 -8 -5 -9 -3 -4
6 5 8 3 11 -6 8 -8 -3 -13 -10 -12 -16 1 -5 -5 -9 -15 -8 -9 0 -17 -4 -17 -11
0 -6 -4 -15 -9 -20 -5 -5 -6 -2 -1 6 5 9 3 12 -6 9 -8 -3 -14 -11 -14 -18 0
-7 -7 -15 -15 -17 -13 -4 -13 -3 0 6 24 17 2 13 -25 -5 -14 -9 -23 -20 -20
-24 3 -5 0 -12 -6 -16 -8 -4 -9 -3 -5 4 12 19 -10 14 -35 -9 l-24 -20 25 12
c20 9 23 9 13 -1 -6 -7 -22 -13 -35 -14 -13 -1 -22 -7 -21 -13 1 -6 -5 -10
-15 -9 -9 0 -16 -4 -15 -10 1 -7 -5 -11 -15 -10 -9 0 -17 -4 -17 -11 0 -6 -4
-15 -9 -20 -5 -5 -6 -3 -2 5 4 6 5 12 2 12 -12 0 -101 -61 -101 -70 0 -4 -4
-12 -9 -17 -5 -5 -6 -2 -1 6 5 9 3 12 -6 9 -8 -3 -14 -10 -14 -15 0 -6 -4 -15
-9 -20 -5 -5 -6 -3 -2 5 10 16 0 15 -29 -4 -14 -9 -22 -21 -18 -27 3 -6 1 -7
-5 -3 -10 6 -92 -38 -92 -50 0 -6 13 1 53 28 15 11 27 17 27 14 0 -11 -74 -55
-83 -49 -5 3 -13 -1 -18 -8 -5 -8 -9 -376 -9 -819 0 -443 -3 -815 -6 -827 -4
-13 -10 -23 -15 -23 -5 0 -9 389 -9 908 l1 907 102 65 c56 35 316 201 577 369
522 335 1030 658 1328 844 107 68 187 124 181 128 -8 5 -8 8 0 13 6 4 9 12 6
17 -4 5 -1 9 4 9 7 0 11 -33 11 -90z m-5039 45 c19 -8 27 -14 19 -14 -14 0
-72 28 -59 29 4 0 22 -7 40 -15z m220 -42 c13 -16 12 -17 -3 -4 -17 13 -22 21
-14 21 2 0 10 -8 17 -17z m4924 -103 c13 -5 14 -9 5 -9 -8 0 -24 4 -35 9 -13
5 -14 9 -5 9 8 0 24 -4 35 -9z m90 -21 l45 -11 -198 -127 c-108 -70 -235 -152
-282 -182 -47 -31 -170 -111 -275 -179 -104 -68 -318 -207 -475 -310 -316
-207 -310 -203 -310 -197 0 3 113 78 250 168 327 214 1020 665 1157 753 l108
69 -40 12 c-51 16 -38 18 20 4z m-275 -34 c0 -2 -10 -9 -22 -15 -22 -11 -22
-10 -4 4 21 17 26 19 26 11z m-50 -30 c0 -2 -10 -9 -22 -15 -22 -11 -22 -10
-4 4 21 17 26 19 26 11z m-4379 -62 c13 -16 12 -17 -3 -4 -10 7 -18 15 -18 17
0 8 8 3 21 -13z m90 -70 c13 -16 12 -17 -3 -4 -17 13 -22 21 -14 21 2 0 10 -8
17 -17z m3794 -189 c-26 -20 -55 -36 -55 -30 0 5 63 46 70 46 3 -1 -4 -8 -15
-16z m-3394 -131 c13 -16 12 -17 -3 -4 -17 13 -22 21 -14 21 2 0 10 -8 17 -17z
m3009 -118 c0 -2 -10 -9 -22 -15 -22 -11 -22 -10 -4 4 21 17 26 19 26 11z
m-225 -145 c-3 -5 -16 -15 -28 -21 -19 -9 -19 -8 3 10 28 23 34 26 25 11z
m-2284 -137 c13 -16 12 -17 -3 -4 -17 13 -22 21 -14 21 2 0 10 -8 17 -17z
m4026 1 c-3 -3 -12 -4 -19 -1 -8 3 -5 6 6 6 11 1 17 -2 13 -5z m-5412 -84 c27
-27 47 -50 44 -50 -3 0 -27 23 -54 50 -27 28 -47 50 -44 50 3 0 27 -22 54 -50z
m3595 -14 c0 -2 -84 -59 -187 -126 -104 -68 -287 -189 -408 -268 -121 -80
-230 -151 -242 -160 -13 -8 -23 -10 -23 -6 0 5 9 14 20 19 20 10 334 214 665
432 172 114 175 116 175 109z m-3495 -76 c21 -22 37 -40 34 -40 -3 0 -23 18
-44 40 -21 22 -37 40 -34 40 3 0 23 -18 44 -40z m202 -184 c4 -6 -28 20 -70
58 -42 38 -77 71 -77 73 0 7 138 -116 147 -131z m1384 117 c13 -16 12 -17 -3
-4 -10 7 -18 15 -18 17 0 8 8 3 21 -13z m60 -50 c13 -16 12 -17 -3 -4 -17 13
-22 21 -14 21 2 0 10 -8 17 -17z m1274 -3 c-3 -5 -12 -10 -18 -10 -7 0 -6 4 3
10 19 12 23 12 15 0z m-35 -24 c0 -2 -7 -7 -16 -10 -8 -3 -12 -2 -9 4 6 10 25
14 25 6z m-2517 -169 c53 -42 99 -83 104 -89 7 -13 -161 123 -227 182 -30 27
-31 28 -4 8 17 -12 75 -58 127 -101z m252 -202 c60 -49 169 -133 242 -187 73
-55 133 -102 133 -105 0 -3 -6 -1 -12 4 -7 6 -60 45 -118 88 -137 102 -380
295 -380 302 0 6 -5 10 135 -102z m1466 48 c13 -16 12 -17 -3 -4 -17 13 -22
21 -14 21 2 0 10 -8 17 -17z m-1130 -240 c13 -16 12 -17 -3 -4 -17 13 -22 21
-14 21 2 0 10 -8 17 -17z m157 -181 c39 -30 72 -56 72 -58 0 -7 -108 71 -150
107 -42 37 -20 23 78 -49z m103 -79 c13 -16 12 -17 -3 -4 -17 13 -22 21 -14
21 2 0 10 -8 17 -17z m424 -304 c352 -251 413 -296 385 -283 -23 12 -731 520
-765 550 l-30 26 30 -21 c17 -12 188 -134 380 -272z m-124 164 c13 -16 12 -17
-3 -4 -17 13 -22 21 -14 21 2 0 10 -8 17 -17z m380 -270 c13 -16 12 -17 -3 -4
-17 13 -22 21 -14 21 2 0 10 -8 17 -17z m334 -313 c50 -34 97 -69 105 -78 18
-19 -9 0 -167 112 -68 48 -123 89 -123 92 0 3 21 -10 48 -29 26 -19 88 -63
137 -97z m265 -187 c0 -5 -12 2 -82 49 -32 21 -58 41 -58 43 0 3 32 -16 70
-41 39 -26 70 -49 70 -51z"/>
<path d="M4470 8226 c0 -2 7 -7 16 -10 8 -3 12 -2 9 4 -6 10 -25 14 -25 6z"/>
<path d="M6270 8170 c-8 -5 -10 -10 -5 -10 6 0 17 5 25 10 8 5 11 10 5 10 -5
0 -17 -5 -25 -10z"/>
<path d="M6220 8145 c-14 -8 -20 -14 -14 -15 5 0 19 7 30 15 24 18 16 19 -16
0z"/>
<path d="M4630 8145 c0 -7 81 -47 86 -43 2 3 -17 14 -41 26 -25 12 -45 20 -45
17z"/>
<path d="M4730 8095 c0 -3 36 -23 80 -45 44 -22 80 -38 80 -35 0 3 -36 23 -80
45 -44 22 -80 38 -80 35z"/>
<path d="M5970 8025 c-25 -13 -40 -24 -35 -24 6 0 30 11 55 24 25 13 41 24 35
24 -5 0 -30 -11 -55 -24z"/>
<path d="M5900 7990 c-9 -6 -10 -10 -3 -10 6 0 15 5 18 10 8 12 4 12 -15 0z"/>
<path d="M5820 7950 c-9 -6 -10 -10 -3 -10 6 0 15 5 18 10 8 12 4 12 -15 0z"/>
<path d="M5080 7915 c0 -7 61 -37 66 -33 2 3 -12 12 -31 21 -19 9 -35 15 -35
12z"/>
<path d="M5698 7894 c-39 -21 -35 -28 5 -8 37 19 44 24 31 24 -5 -1 -21 -8
-36 -16z"/>
<path d="M5160 7875 c0 -2 23 -16 50 -30 28 -14 50 -23 50 -20 0 2 -22 16 -50
30 -27 14 -50 23 -50 20z"/>
<path d="M5604 7844 c-18 -14 -18 -14 6 -3 31 14 36 19 24 19 -6 0 -19 -7 -30
-16z"/>
<path d="M5530 7810 c-19 -11 -30 -19 -25 -19 6 0 26 8 45 19 19 11 31 19 25
19 -5 0 -26 -8 -45 -19z"/>
<path d="M5470 7780 c-9 -6 -10 -10 -3 -10 6 0 15 5 18 10 8 12 4 12 -15 0z"/>
<path d="M7479 5683 c-1 -5 0 -23 1 -42 1 -19 -4 -37 -12 -42 -10 -7 -10 -9 0
-9 9 0 12 -30 12 -115 0 -85 -3 -115 -12 -115 -10 0 -10 -2 -2 -8 7 -4 14 -18
17 -32 2 -14 5 64 6 173 0 108 -1 197 -4 197 -3 0 -5 -3 -6 -7z"/>
<path d="M7482 5270 c0 -14 2 -19 5 -12 2 6 2 18 0 25 -3 6 -5 1 -5 -13z"/>
<path d="M7461 4654 c0 -11 3 -14 6 -6 3 7 2 16 -1 19 -3 4 -6 -2 -5 -13z"/>
<path d="M2460 4166 c0 -3 9 -10 20 -16 11 -6 20 -8 20 -6 0 3 -9 10 -20 16
-11 6 -20 8 -20 6z"/>
<path d="M5030 9900 c-8 -5 -10 -10 -5 -10 6 0 17 5 25 10 8 5 11 10 5 10 -5
0 -17 -5 -25 -10z"/>
<path d="M4940 9860 c-9 -6 -10 -10 -3 -10 6 0 15 5 18 10 8 12 4 12 -15 0z"/>
<path d="M4706 9734 c-66 -30 -126 -52 -133 -50 -8 3 -12 2 -9 -3 3 -4 -17
-18 -44 -31 -27 -13 -47 -27 -44 -32 3 -4 -7 -3 -21 2 -18 7 -32 7 -43 0 -14
-9 -14 -10 5 -5 12 3 24 2 27 -4 3 -5 -9 -8 -28 -7 -19 1 -34 -3 -33 -9 1 -5
-8 -10 -20 -9 -12 0 -20 -3 -17 -7 6 -11 -107 -61 -123 -54 -8 2 -12 1 -9 -4
3 -4 -12 -16 -33 -25 -21 -10 -38 -24 -38 -32 0 -17 -3 -18 94 26 42 19 70 37
66 43 -3 5 -1 7 5 4 11 -7 82 22 302 123 202 92 200 92 194 101 -3 5 7 9 21 9
15 0 24 4 20 10 -9 14 -7 15 -139 -46z"/>
<path d="M4510 9665 c-14 -8 -20 -14 -15 -14 6 0 21 6 35 14 14 8 21 14 15 14
-5 0 -21 -6 -35 -14z"/>
<path d="M4280 9560 c-8 -5 -10 -10 -5 -10 6 0 17 5 25 10 8 5 11 10 5 10 -5
0 -17 -5 -25 -10z"/>
<path d="M4164 9504 c-18 -14 -18 -14 6 -3 31 14 36 19 24 19 -6 0 -19 -7 -30
-16z"/>
<path d="M4020 9440 c-8 -5 -10 -10 -5 -10 6 0 17 5 25 10 8 5 11 10 5 10 -5
0 -17 -5 -25 -10z"/>
<path d="M3820 9350 c-8 -5 -10 -10 -5 -10 6 0 17 5 25 10 8 5 11 10 5 10 -5
0 -17 -5 -25 -10z"/>
<path d="M3700 9295 c-14 -8 -20 -14 -15 -14 6 0 21 6 35 14 14 8 21 14 15 14
-5 0 -21 -6 -35 -14z"/>
<path d="M3580 9240 c-8 -5 -10 -10 -5 -10 6 0 17 5 25 10 8 5 11 10 5 10 -5
0 -17 -5 -25 -10z"/>
<path d="M3460 9185 c-14 -8 -20 -14 -15 -14 6 0 21 6 35 14 14 8 21 14 15 14
-5 0 -21 -6 -35 -14z"/>
<path d="M3330 9125 c-14 -8 -20 -14 -15 -14 6 0 21 6 35 14 14 8 21 14 15 14
-5 0 -21 -6 -35 -14z"/>
<path d="M3120 9030 c-8 -5 -10 -10 -5 -10 6 0 17 5 25 10 8 5 11 10 5 10 -5
0 -17 -5 -25 -10z"/>
<path d="M2780 8875 c-14 -8 -20 -14 -15 -14 6 0 21 6 35 14 14 8 21 14 15 14
-5 0 -21 -6 -35 -14z"/>
<path d="M2420 8710 c-8 -5 -10 -10 -5 -10 6 0 17 5 25 10 8 5 11 10 5 10 -5
0 -17 -5 -25 -10z"/>
<path d="M2250 8630 c-19 -11 -30 -19 -25 -19 6 0 26 8 45 19 19 11 31 19 25
19 -5 0 -26 -8 -45 -19z"/>
<path d="M2130 8575 c-14 -8 -20 -14 -15 -14 6 0 21 6 35 14 14 8 21 14 15 14
-5 0 -21 -6 -35 -14z"/>
<path d="M2030 8530 c-8 -5 -10 -10 -5 -10 6 0 17 5 25 10 8 5 11 10 5 10 -5
0 -17 -5 -25 -10z"/>
<path d="M1780 8415 c-14 -8 -20 -14 -15 -14 6 0 21 6 35 14 14 8 21 14 15 14
-5 0 -21 -6 -35 -14z"/>
<path d="M1660 8360 c-8 -5 -10 -10 -5 -10 6 0 17 5 25 10 8 5 11 10 5 10 -5
0 -17 -5 -25 -10z"/>
<path d="M7844 7799 c-9 -15 14 -18 32 -4 18 13 18 14 -4 12 -13 -1 -26 -5
-28 -8z"/>
<path d="M7755 7740 c3 -5 2 -10 -2 -10 -5 0 -18 -7 -29 -15 -16 -14 -15 -14
14 0 18 9 30 20 27 25 -4 6 -8 10 -11 10 -3 0 -2 -4 1 -10z"/>
<path d="M7344 7554 c-18 -14 -18 -15 4 -4 12 6 22 13 22 15 0 8 -5 6 -26 -11z"/>
<path d="M7300 7530 c-9 -6 -10 -10 -3 -10 6 0 15 5 18 10 8 12 4 12 -15 0z"/>
<path d="M7165 7430 c-38 -22 -49 -34 -47 -50 2 -14 -2 -20 -17 -20 -29 0 -52
11 -45 22 3 5 -8 2 -25 -6 -17 -9 -31 -19 -31 -22 0 -2 9 0 19 6 29 15 39 12
17 -5 -11 -8 -16 -15 -12 -15 5 0 3 -7 -4 -15 -9 -11 -15 -12 -25 -2 -7 7 -11
16 -8 20 3 5 -4 4 -16 -2 -24 -13 -28 -23 -6 -15 11 5 13 2 9 -10 -3 -9 -12
-16 -20 -16 -7 0 -28 -9 -46 -20 -37 -22 -53 -26 -42 -9 4 8 0 8 -15 0 -25
-14 -28 -23 -4 -14 10 4 14 2 9 -5 -3 -6 2 -16 11 -22 17 -11 17 -11 0 -6 -11
3 -20 0 -23 -9 -4 -8 -11 -15 -17 -15 -5 0 -2 9 8 20 21 23 16 25 -19 9 -14
-7 -23 -16 -20 -20 3 -5 -2 -6 -10 -3 -9 3 -13 11 -9 17 3 6 1 7 -6 3 -6 -4
-9 -11 -6 -16 7 -11 -32 -33 -44 -26 -7 5 -6 -53 1 -60 2 -1 30 14 63 33 64
38 265 154 405 234 72 42 87 57 46 50 -5 -1 -12 2 -15 8 -4 6 -27 -2 -56 -19z"/>
<path d="M7080 7380 c-9 -6 -10 -10 -3 -10 6 0 15 5 18 10 8 12 4 12 -15 0z"/>
<path d="M4404 7274 c-18 -14 -18 -14 6 -3 31 14 36 19 24 19 -6 0 -19 -7 -30
-16z"/>
<path d="M4270 7210 c-9 -6 -10 -10 -3 -10 6 0 15 5 18 10 8 12 4 12 -15 0z"/>
<path d="M4150 7150 c-9 -6 -10 -10 -3 -10 6 0 15 5 18 10 8 12 4 12 -15 0z"/>
<path d="M6685 7151 c-3 -5 -2 -12 3 -15 5 -3 9 1 9 9 0 17 -3 19 -12 6z"/>
<path d="M3968 7064 c-39 -21 -35 -28 5 -8 37 19 44 24 31 24 -5 -1 -21 -8
-36 -16z"/>
<path d="M5574 6534 c-18 -14 -18 -15 4 -4 12 6 22 13 22 15 0 8 -5 6 -26 -11z"/>
<path d="M5518 6504 c-38 -20 -36 -28 2 -9 17 9 30 18 30 20 0 7 -1 6 -32 -11z"/>
<path d="M7974 6476 c11 -9 24 -16 30 -16 12 0 7 5 -24 19 -24 11 -24 11 -6
-3z"/>
<path d="M2000 6465 c-14 -8 -20 -14 -15 -14 6 0 21 6 35 14 14 8 21 14 15 14
-5 0 -21 -6 -35 -14z"/>
<path d="M5438 6459 c-21 -11 -38 -22 -38 -24 0 -3 18 4 40 15 22 11 40 23 40
25 0 7 0 7 -42 -16z"/>
<path d="M1860 6400 c-19 -11 -30 -19 -25 -19 6 0 26 8 45 19 19 11 31 19 25
19 -5 0 -26 -8 -45 -19z"/>
<path d="M8100 6415 c0 -2 23 -16 50 -30 28 -14 50 -23 50 -20 0 2 -22 16 -50
30 -27 14 -50 23 -50 20z"/>
<path d="M1700 6325 c-25 -13 -40 -24 -35 -24 6 0 30 11 55 24 25 13 41 24 35
24 -5 0 -30 -11 -55 -24z"/>
<path d="M8230 6346 c0 -2 7 -7 16 -10 8 -3 12 -2 9 4 -6 10 -25 14 -25 6z"/>
<path d="M1545 6250 c-3 -6 1 -7 9 -4 18 7 21 14 7 14 -6 0 -13 -4 -16 -10z"/>
<path d="M8430 6246 c0 -3 9 -10 20 -16 11 -6 20 -8 20 -6 0 3 -9 10 -20 16
-11 6 -20 8 -20 6z"/>
<path d="M8481 6216 c10 -9 69 -36 69 -32 0 6 -55 36 -66 36 -4 0 -5 -2 -3 -4z"/>
<path d="M4560 4495 c0 -2 27 -18 60 -35 33 -17 60 -28 60 -25 0 2 -27 18 -60
35 -33 17 -60 28 -60 25z"/>
<path d="M4710 4416 c0 -3 14 -12 30 -21 17 -9 30 -13 30 -11 0 3 -13 12 -30
21 -16 9 -30 13 -30 11z"/>
<path d="M4910 4306 c0 -3 14 -12 30 -21 17 -9 30 -13 30 -11 0 3 -13 12 -30
21 -16 9 -30 13 -30 11z"/>
<path d="M5040 4236 c0 -3 14 -12 30 -21 17 -9 30 -13 30 -11 0 3 -13 12 -30
21 -16 9 -30 13 -30 11z"/>
<path d="M8078 3033 c7 -3 16 -2 19 1 4 3 -2 6 -13 5 -11 0 -14 -3 -6 -6z"/>
<path d="M8125 3010 c-13 -6 -15 -9 -5 -9 8 0 22 4 30 9 18 12 2 12 -25 0z"/>
<path d="M8218 2993 c7 -3 16 -2 19 1 4 3 -2 6 -13 5 -11 0 -14 -3 -6 -6z"/>
</g>
</svg>
